<svg width="200" height="200" viewBox="0 0 200 200" fill="none" xmlns="http://www.w3.org/2000/svg">
<path d="M96.3979 175.333C138.652 175.333 172.906 141.456 172.906 99.6667C172.906 57.8771 138.652 24 96.3979 24C54.1437 24 19.89 57.8771 19.89 99.6667C19.89 141.456 54.1437 175.333 96.3979 175.333Z" fill="#F1F1F1"/>
<path fill-rule="evenodd" clip-rule="evenodd" d="M162.408 147.901C163.106 147.656 163.839 147.329 164.405 146.856C165.077 146.295 165.35 145.572 165.534 144.81C165.769 143.832 165.864 142.79 166.149 141.811C166.255 141.447 166.459 141.31 166.546 141.248C166.767 141.094 166.99 141.053 167.2 141.069C167.449 141.086 167.791 141.18 168.015 141.592C168.047 141.651 168.089 141.741 168.117 141.864C168.138 141.955 168.151 142.237 168.172 142.354C168.227 142.641 168.272 142.928 168.314 143.216C168.456 144.176 168.537 144.992 168.984 145.874C169.59 147.072 170.198 147.804 171.021 148.129C171.818 148.443 172.77 148.384 173.987 148.138C174.103 148.11 174.218 148.086 174.331 148.067C174.868 147.974 175.381 148.322 175.486 148.851C175.591 149.379 175.25 149.894 174.719 150.01C174.608 150.034 174.498 150.057 174.39 150.078C172.746 150.481 170.842 151.918 169.736 153.176C169.395 153.564 168.895 154.649 168.386 155.341C168.01 155.851 167.588 156.187 167.233 156.306C166.996 156.386 166.795 156.374 166.63 156.334C166.389 156.275 166.19 156.146 166.037 155.941C165.953 155.829 165.876 155.679 165.839 155.487C165.822 155.395 165.82 155.16 165.82 155.054C165.716 154.701 165.589 154.356 165.497 154C165.276 153.15 164.843 152.612 164.328 151.901C163.847 151.235 163.33 150.817 162.572 150.484C162.474 150.46 161.678 150.267 161.397 150.157C160.987 149.995 160.792 149.723 160.721 149.577C160.6 149.329 160.588 149.112 160.612 148.931C160.647 148.665 160.768 148.436 160.983 148.252C161.116 148.138 161.315 148.026 161.581 147.972C161.787 147.93 162.332 147.905 162.408 147.901ZM167.075 146.516C167.111 146.597 167.151 146.679 167.192 146.761C168.08 148.515 169.073 149.494 170.28 149.97L170.321 149.985C169.513 150.578 168.782 151.241 168.224 151.876C167.994 152.137 167.689 152.681 167.36 153.238C167.061 152.277 166.572 151.598 165.958 150.748C165.488 150.099 164.996 149.611 164.391 149.213C164.861 148.975 165.308 148.696 165.698 148.37C166.347 147.827 166.776 147.199 167.075 146.516Z" fill="#004C99"/>
<path d="M13.2469 84.922C13.2469 86.9012 11.6247 88.5056 9.62347 88.5056C7.62228 88.5056 6 86.9012 6 84.922C6 82.9428 7.62228 81.3384 9.62347 81.3384C11.6247 81.3384 13.2469 82.9428 13.2469 84.922Z" fill="#004C99"/>
<path fill-rule="evenodd" clip-rule="evenodd" d="M40.9554 52.8091C40.0153 49.6031 38.1638 47.0951 35.3261 45.284C34.9916 45.0703 34.8935 44.6262 35.1098 44.2931C35.3232 43.96 35.7702 43.863 36.1048 44.0768C39.2453 46.0821 41.2986 48.8575 42.3397 52.4072C42.4522 52.787 42.2301 53.1858 41.8494 53.2966C41.4659 53.4076 41.065 53.189 40.9554 52.8091Z" fill="#004C99"/>
<path fill-rule="evenodd" clip-rule="evenodd" d="M35.3261 45.2839C38.1638 47.0951 40.0153 49.603 40.9554 52.809C41.065 53.1889 41.4659 53.4075 41.8494 53.2965C42.2301 53.1857 42.4522 52.7869 42.3397 52.4071C41.2986 48.8574 39.2453 46.082 36.1048 44.0767C35.7702 43.8629 35.3232 43.9599 35.1098 44.293C34.8935 44.6261 34.9916 45.0702 35.3261 45.2839ZM34.5496 43.9316C34.9634 43.2879 35.822 43.105 36.4635 43.5148ZM36.4637 43.5149C39.7419 45.6082 41.8934 48.5173 42.9792 52.2186Z" fill="#004C99"/>
<path fill-rule="evenodd" clip-rule="evenodd" d="M73.3559 48.458C73.9154 49.113 74.4172 49.8187 74.844 50.5701C75.0344 50.9046 75.3689 51.6155 75.4208 52.2251C75.4785 52.8747 75.2565 53.4226 74.6854 53.7112C73.927 54.094 73.3213 54.0541 72.8542 53.8226C72.4043 53.6002 72.0525 53.1633 71.8304 52.5775C71.4065 51.4577 71.4699 49.7464 71.692 48.7699C71.095 48.1571 70.4404 47.6013 69.7396 47.1073C64.5198 43.428 56.863 44.7847 50.9713 50.2861C48.9093 52.2122 47.9172 56.2574 47.401 60.6218C46.5964 67.4174 47.055 75.0074 47.1184 77.231C47.1328 77.7801 47.0809 78.106 47.0521 78.1712C46.9165 78.4913 46.6772 78.5745 46.5099 78.6061C46.2677 78.6491 46.0745 78.6032 45.9187 78.5229C45.7082 78.4127 45.5352 78.2188 45.4544 77.9196C45.4111 77.7543 45.3996 77.5242 45.4054 77.2789C45.4112 77.1088 45.4458 76.9229 45.4112 76.801C45.1862 76.0201 44.9151 75.2575 44.6498 74.4895C43.7645 71.9078 42.6196 69.4885 41.3478 67.072C37.3074 59.3937 33.3998 51.2807 26.7755 45.4307C26.4785 45.1682 26.4496 44.7144 26.715 44.4183C26.9774 44.1222 27.433 44.0953 27.733 44.3581C34.4899 50.3236 38.5043 58.5763 42.6253 66.4067C43.7068 68.4622 44.6989 70.5207 45.5236 72.6738C45.44 68.865 45.4717 63.5929 46.1725 58.928C46.7954 54.7793 47.9807 51.1129 49.985 49.2403C56.4391 43.2137 64.8572 41.9063 70.573 45.9371C71.1844 46.3686 71.7669 46.8431 72.3091 47.3578C75.2997 41.9858 81.7019 39.8327 87.3601 42.402C87.7235 42.5664 87.8821 42.9922 87.7177 43.3522C87.5504 43.7123 87.1236 43.8712 86.7603 43.7068C81.6616 41.3916 75.8793 43.4578 73.3559 48.458ZM72.9378 50.2565C73.1714 50.5847 73.3877 50.925 73.5896 51.2767C73.6963 51.4655 73.8808 51.8284 73.9587 52.1836C73.976 52.2668 73.9789 52.397 73.9789 52.4572C73.7799 52.5548 73.6242 52.6018 73.4973 52.5384C73.3387 52.4604 73.2579 52.2768 73.18 52.0717C72.9839 51.557 72.9205 50.8748 72.9378 50.2565Z" fill="#004C99"/>
<path fill-rule="evenodd" clip-rule="evenodd" d="M74.9857 54.3064L74.9862 54.3062C75.8614 53.8638 76.1597 53.013 76.085 52.1675C76.0203 51.4112 75.6272 50.5986 75.4237 50.2408C75.0504 49.5836 74.6235 48.9612 74.1539 48.3764C76.6129 43.9709 81.8464 42.2077 86.4846 44.3138L86.4854 44.3142C87.1816 44.6291 88.0008 44.325 88.3223 43.6331L88.3241 43.6291L88.3241 43.6291C88.6418 42.9333 88.3345 42.1115 87.6353 41.7948C81.9162 39.1979 75.4657 41.1735 72.1534 46.321C71.769 45.9928 71.3692 45.683 70.9574 45.3924L70.9572 45.3922C64.9045 41.1239 56.1363 42.5843 49.53 48.753L49.5299 48.7532C48.4233 49.7869 47.5799 51.2772 46.9363 52.9969C46.2903 54.7232 45.8291 56.7255 45.5132 58.829C44.9942 62.2841 44.8386 66.0579 44.8252 69.3298C44.3186 68.2398 43.7781 67.1659 43.2153 66.0962L43.2153 66.0961C42.8966 65.4906 42.5781 64.8815 42.2584 64.2702C38.4654 57.0167 34.5094 49.4515 28.1742 43.8583L28.1723 43.8566C27.6007 43.3558 26.7263 43.4018 26.2172 43.9747C25.704 44.5489 25.7628 45.4254 26.334 45.9302L26.3342 45.9304C32.3014 51.2001 36.0328 58.3426 39.7416 65.442C40.08 66.0896 40.4181 66.7369 40.7578 67.3824L40.7578 67.3824C42.0215 69.7836 43.1494 72.1693 44.0192 74.7057L44.0197 74.7072C44.0538 74.806 44.0879 74.9043 44.1218 75.0021C44.3499 75.6601 44.5709 76.2975 44.7595 76.9474C44.7593 76.9555 44.7589 76.9666 44.758 76.9814C44.7564 77.0066 44.7544 77.0314 44.7517 77.0644C44.7509 77.074 44.75 77.0844 44.7491 77.0956C44.7455 77.1402 44.7411 77.197 44.7391 77.2563L44.7389 77.2632L44.7389 77.2632C44.7328 77.5217 44.7416 77.829 44.8094 78.0884L44.8107 78.0932C44.9395 78.5704 45.2328 78.9164 45.6096 79.1135L45.6131 79.1154C45.8878 79.257 46.2286 79.3331 46.6265 79.2624L46.6335 79.2612L46.6335 79.2612C46.9196 79.2072 47.4086 79.0359 47.6648 78.4337C47.705 78.3402 47.7238 78.242 47.7327 78.1921C47.7455 78.1211 47.7565 78.0378 47.7652 77.9445C47.7827 77.7571 47.7926 77.5116 47.7848 77.2135L47.7848 77.212C47.7764 76.9171 47.7613 76.532 47.7432 76.0703C47.6229 73.0029 47.3701 66.5528 48.063 60.7002L48.063 60.7001C48.3187 58.5385 48.6895 56.4824 49.2419 54.7412C49.7978 52.989 50.517 51.6227 51.4262 50.7733C57.1773 45.4033 64.4826 44.2174 69.3555 47.6522C69.929 48.0565 70.4695 48.5037 70.97 48.9908C70.8896 49.4756 70.8444 50.0493 70.8523 50.629C70.8622 51.3582 70.9566 52.1523 71.2069 52.8135L71.207 52.8137C71.4702 53.5081 71.9166 54.1028 72.5588 54.4202C73.2362 54.7556 74.0636 54.7717 74.9857 54.3064ZM71.692 48.7698C71.095 48.157 70.4403 47.6013 69.7396 47.1073C64.5197 43.4279 56.863 44.7846 50.9712 50.286C48.9093 52.2122 47.9172 56.2573 47.401 60.6218C46.701 66.5335 46.957 73.0464 47.0772 76.1045C47.0952 76.5618 47.1101 76.9418 47.1184 77.231C47.1328 77.7801 47.0809 78.106 47.0521 78.1711C46.9165 78.4913 46.6772 78.5745 46.5099 78.6061C46.2676 78.6491 46.0744 78.6032 45.9187 78.5229C45.7082 78.4127 45.5351 78.2187 45.4544 77.9195C45.4111 77.7543 45.3996 77.5242 45.4054 77.2789C45.4071 77.2277 45.4115 77.175 45.4158 77.1231C45.4257 77.0026 45.4353 76.8862 45.4111 76.8009C45.2149 76.1195 44.9834 75.452 44.7514 74.7827C44.7175 74.685 44.6836 74.5873 44.6498 74.4895C43.7644 71.9078 42.6195 69.4884 41.3477 67.0719C41.0065 66.4234 40.6661 65.7717 40.325 65.1186C36.6279 58.0392 32.8402 50.7865 26.7755 45.4307C26.4785 45.1682 26.4496 44.7143 26.7149 44.4183C26.9774 44.1222 27.433 44.0952 27.7329 44.358C33.9711 49.8655 37.8716 57.3224 41.6766 64.5967C41.9931 65.2017 42.3089 65.8054 42.6253 66.4066C43.4185 67.9143 44.1636 69.4234 44.8299 70.9704C45.072 71.5326 45.3038 72.0998 45.5236 72.6738C45.5108 72.0911 45.5007 71.4743 45.4953 70.8306C45.4654 67.2663 45.5789 62.8793 46.1725 58.928C46.7954 54.7793 47.9807 51.1128 49.985 49.2403C56.4391 43.2136 64.8572 41.9063 70.573 45.9371C70.9981 46.2371 71.4093 46.558 71.8027 46.8987C71.975 47.0479 72.1439 47.201 72.3091 47.3577C72.4206 47.1575 72.5368 46.9617 72.6576 46.7704C75.776 41.8318 81.9128 39.9284 87.3601 42.402C87.7234 42.5664 87.882 42.9921 87.7177 43.3522C87.5504 43.7122 87.1236 43.8712 86.7602 43.7068C81.6615 41.3916 75.8793 43.4578 73.3559 48.458C73.9154 49.1129 74.4172 49.8187 74.844 50.57C75.0344 50.9046 75.3689 51.6155 75.4208 52.2251C75.4785 52.8746 75.2564 53.4226 74.6854 53.7112C73.927 54.0939 73.3213 54.054 72.8541 53.8225C72.4042 53.6002 72.0524 53.1632 71.8304 52.5774C71.4064 51.4577 71.4699 49.7464 71.692 48.7698ZM73.4973 52.5384C73.6242 52.6018 73.7799 52.5547 73.9789 52.4572C73.9789 52.397 73.976 52.2667 73.9587 52.1835C73.9044 51.9359 73.7982 51.6845 73.7027 51.4909C73.6613 51.4069 73.6218 51.3338 73.5895 51.2767C73.3877 50.9249 73.1714 50.5847 72.9378 50.2565C72.9255 50.6952 72.9539 51.1661 73.0414 51.5865C73.0417 51.5879 73.042 51.5893 73.0423 51.5907C73.0515 51.6347 73.0614 51.678 73.0719 51.7208C73.1022 51.8439 73.1381 51.9616 73.18 52.0716C73.2191 52.1745 73.2589 52.272 73.3088 52.3534C73.3325 52.392 73.3584 52.4269 73.3876 52.4572C73.4198 52.4905 73.4559 52.518 73.4973 52.5384ZM73.795 51.9419L73.7916 51.9402L73.7916 51.9402" fill="#004C99"/>
<path d="M61.0878 79.2578C61.0878 70.4212 68.2513 63.2578 77.0878 63.2578H176.792C185.629 63.2578 192.792 70.4213 192.792 79.2578V94.2135C192.792 103.05 185.629 110.213 176.792 110.213H77.0878C68.2513 110.213 61.0878 103.05 61.0878 94.2135V79.2578Z" fill="#004C99"/>
<path d="M115.454 82.5019C115.454 80.8014 116.833 79.4229 118.533 79.4229H156.787C158.488 79.4229 159.866 80.8014 159.866 82.5019C159.866 84.2024 158.488 85.581 156.787 85.581H118.533C116.833 85.581 115.454 84.2024 115.454 82.5019Z" fill="#CCC6D9"/>
<path d="M72.5737 91.7392C72.5737 90.0387 73.9523 88.6602 75.6528 88.6602H157.011C158.711 88.6602 160.09 90.0387 160.09 91.7392C160.09 93.4397 158.711 94.8183 157.011 94.8183H75.6528C73.9523 94.8183 72.5737 93.4397 72.5737 91.7392Z" fill="white"/>
<path d="M183.604 87.1205C183.604 91.3718 180.175 94.8182 175.946 94.8182C171.717 94.8182 168.289 91.3718 168.289 87.1205C168.289 82.8692 171.717 79.4229 175.946 79.4229C180.175 79.4229 183.604 82.8692 183.604 87.1205Z" fill="#E1DCEB"/>
<path d="M5.99994 118.516C5.99994 109.679 13.1634 102.516 21.9999 102.516H121.704C130.541 102.516 137.704 109.679 137.704 118.516V133.472C137.704 142.308 130.541 149.472 121.704 149.472H21.9999C13.1634 149.472 5.99994 142.308 5.99994 133.472V118.516Z" fill="#E1DCEB"/>
<path d="M38.926 121.76C38.926 120.059 40.3045 118.681 42.005 118.681H80.2588C81.9593 118.681 83.3379 120.059 83.3379 121.76C83.3379 123.46 81.9593 124.839 80.2588 124.839H42.005C40.3045 124.839 38.926 123.46 38.926 121.76Z" fill="#4CAF50"/>
<path d="M38.926 130.997C38.926 129.297 40.3046 127.918 42.0051 127.918H123.363C125.064 127.918 126.442 129.297 126.442 130.997C126.442 132.698 125.064 134.076 123.363 134.076H42.0051C40.3046 134.076 38.926 132.698 38.926 130.997Z" fill="white"/>
<path d="M32.8002 126.379C32.8002 130.63 29.372 134.076 25.143 134.076C20.914 134.076 17.4858 130.63 17.4858 126.379C17.4858 122.127 20.914 118.681 25.143 118.681C29.372 118.681 32.8002 122.127 32.8002 126.379Z" fill="#4CAF50"/>
</svg>
